<svg width="133" height="62" viewBox="0 0 133 62" fill="none" xmlns="http://www.w3.org/2000/svg">
<path d="M133 57.9882L0 62V0H120.584L133 57.9882Z" fill="url(#paint0_linear)"/>
<path d="M42.2081 23.6113V37.2552H39.5344V24.1206L42.2081 23.6113Z" fill="white"/>
<path d="M45.2953 30.5767C45.2953 29.2408 45.2739 28.7987 45.2087 27.908L47.5347 27.3987L47.6218 29.2811H47.7083C48.2301 27.8841 49.4692 27.1759 50.5998 27.1759C50.8117 27.174 51.0231 27.1944 51.2301 27.2366V29.585C50.9731 29.5321 50.7108 29.5049 50.4476 29.5039C49.8711 29.4903 49.3093 29.6744 48.8686 30.0213C48.4279 30.3682 48.139 30.8539 48.0565 31.3863C48.0024 31.6398 47.9733 31.8973 47.9694 32.1557V37.2568H45.2953V30.5767Z" fill="white"/>
<path d="M55.7915 24.6457C55.8009 24.9244 55.7209 25.1993 55.5617 25.4353C55.4026 25.6712 55.1715 25.8575 54.8981 25.9702C54.6248 26.083 54.3216 26.117 54.0274 26.068C53.7332 26.0189 53.4613 25.8891 53.2467 25.6951C53.0321 25.5011 52.8844 25.2517 52.8227 24.9789C52.7609 24.7061 52.7879 24.4224 52.9001 24.164C53.0123 23.9056 53.2046 23.6843 53.4525 23.5285C53.7003 23.3727 53.9924 23.2895 54.2913 23.2895C54.4874 23.2785 54.6839 23.3057 54.8681 23.3694C55.0524 23.4331 55.2204 23.5319 55.3616 23.6594C55.5027 23.787 55.6138 23.9406 55.6878 24.1104C55.7618 24.2802 55.7972 24.4625 55.7915 24.6457V24.6457ZM52.9432 37.2571V27.9082L55.6393 27.3989V37.2571L52.9432 37.2571Z" fill="white"/>
<path d="M57.9246 34.968C58.7569 35.4028 59.6887 35.6457 60.6421 35.6762C61.816 35.6762 62.3378 35.231 62.3378 34.583C62.3378 33.9151 61.9031 33.5709 60.5988 33.1457C58.5335 32.4778 57.664 31.4255 57.6854 30.2711C57.6854 28.5305 59.2289 27.1743 61.6857 27.1743C62.6568 27.1633 63.6172 27.3643 64.4902 27.7611L63.9684 29.5222C63.2833 29.1641 62.5141 28.9695 61.729 28.9557C60.7724 28.9557 60.2506 29.3804 60.2506 29.9882C60.2506 30.6153 60.751 30.9192 62.0985 31.3643C64.0116 32.0123 64.903 32.9234 64.9249 34.3806C64.9249 36.162 63.4247 37.4576 60.6202 37.4576C59.5036 37.4765 58.399 37.2402 57.4028 36.7693L57.9246 34.968Z" fill="white"/>
<path d="M66.4827 23.394L69.1787 22.8848V28.7553H69.222C69.5538 28.2785 70.0101 27.8883 70.5481 27.6214C71.1041 27.3254 71.7341 27.1719 72.3742 27.1762C74.1783 27.1762 76.0695 28.2898 76.0695 31.4473V37.2572H73.3959V31.7308C73.3959 30.2935 72.8308 29.2208 71.3525 29.2208C70.8946 29.2218 70.4487 29.3572 70.078 29.6079C69.7073 29.8585 69.4306 30.2117 69.2872 30.6173C69.2026 30.8587 69.1659 31.1125 69.1787 31.3663V37.2572H66.4827V23.394Z" fill="white"/>
<path d="M82.6213 24.1206L85.295 23.6113V35.1703H91.3168V37.2552H82.6213V24.1206Z" fill="white"/>
<path d="M95.7586 24.6457C95.7679 24.9244 95.6879 25.1993 95.5288 25.4353C95.3696 25.6712 95.1386 25.8575 94.8652 25.9702C94.5918 26.083 94.2886 26.117 93.9944 26.068C93.7002 26.0189 93.4284 25.8891 93.2137 25.6951C92.9991 25.5011 92.8515 25.2517 92.7897 24.9789C92.728 24.7061 92.7549 24.4224 92.8671 24.164C92.9793 23.9056 93.1717 23.6843 93.4195 23.5285C93.6674 23.3727 93.9594 23.2895 94.2583 23.2895C94.4545 23.2785 94.6509 23.3057 94.8352 23.3694C95.0195 23.4331 95.1875 23.5319 95.3286 23.6594C95.4697 23.787 95.5808 23.9406 95.6548 24.1104C95.7289 24.2802 95.7642 24.4625 95.7586 24.6457V24.6457ZM92.9103 37.2571V27.9082L95.6063 27.3989V37.2571L92.9103 37.2571Z" fill="white"/>
<path d="M98.7798 37.2561V29.26H97.3452V27.398H98.7798V26.9727C98.7798 25.6976 99.1494 24.4219 100.063 23.6123C100.822 22.9834 101.808 22.6438 102.823 22.6609C103.406 22.6516 103.987 22.7336 104.541 22.9036L104.345 24.8268C103.984 24.7015 103.6 24.6397 103.215 24.6447C101.889 24.6447 101.432 25.6772 101.432 26.8917V27.398H103.758V29.26H101.454V37.2561H98.7798Z" fill="white"/>
<path d="M107.063 33.0259C107.128 34.8074 108.628 35.5767 110.324 35.5767C111.323 35.6013 112.319 35.4501 113.258 35.1311L113.65 36.8519C112.47 37.2703 111.216 37.4764 109.954 37.4591C106.519 37.4591 104.498 35.4957 104.498 32.4793C104.498 29.7465 106.28 27.1758 109.672 27.1758C113.106 27.1758 114.237 29.8072 114.237 31.973C114.24 32.3257 114.211 32.6779 114.15 33.0259L107.063 33.0259ZM111.715 31.2852C111.737 30.3741 111.302 28.8762 109.519 28.8762C107.867 28.8762 107.171 30.2727 107.063 31.2852H111.715Z" fill="white"/>
<path d="M34.3241 41.2724L34.1808 40.071L34.3241 38.6026L33.8878 38.2795C33.5894 38.4417 33.2856 38.5875 33.2003 38.6321C33.0172 38.735 31.3962 39.6802 31.3962 39.6802L30.1462 39.3544L29.4745 39.1848L29.4177 38.7397C29.4177 38.7397 29.2746 35.793 29.2904 35.6889C29.3058 35.5831 28.8428 32.557 28.8428 32.557L28.5841 30.9289L28.7939 28.8277L29.2486 26.0449C29.2215 25.9688 29.2621 24.9214 29.2621 24.9214C29.2621 24.9214 29.2215 23.2255 29.2257 23.1529C29.23 23.08 29.3324 22.1304 29.3324 22.1304L29.827 20.9143L29.9379 20.4396C29.9351 20.4163 29.9255 20.3942 29.91 20.3758C29.7742 20.277 29.6153 20.2093 29.4463 20.1781C29.2773 20.1469 29.1028 20.1531 28.9368 20.1962C28.6679 20.259 28.4217 20.3876 28.2237 20.5686C28.1105 20.9879 28.0221 21.4126 27.9591 21.8409L27.8271 23.4193L27.5864 25.2466C27.5864 25.2466 27.4852 25.8057 27.4642 25.8769C27.408 26.0665 27.1151 25.9688 27.1151 25.9688C27.0823 25.794 27.065 25.6169 27.0632 25.4394C27.0797 25.2772 27.1866 24.4219 27.1866 24.4219C27.1901 24.4036 27.1916 24.385 27.1912 24.3664C27.1666 24.0951 27.1191 23.826 27.0493 23.5615C26.9989 23.4521 26.9142 23.3595 26.8064 23.2957C26.6986 23.232 26.5726 23.2 26.445 23.2041C26.1833 23.1869 25.9204 23.207 25.6651 23.2637C25.5647 23.2866 25.4701 23.3281 25.3872 23.3858C25.3043 23.4435 25.2347 23.5161 25.1826 23.5995C25.0972 23.7532 25.0536 23.9242 25.0559 24.0974C25.0559 24.0974 25.1551 25.1613 25.2101 25.3318C25.2785 25.5379 25.4082 25.9274 25.4082 25.9274C25.4082 25.9274 25.4342 26.3204 25.0573 26.1144C25.0432 26.1035 25.0296 26.0919 25.0168 26.0796L24.6097 25.3277L24.5864 25.2674L24.5685 25.201L24.3954 24.1918L24.3831 24.1042L24.3892 23.252C24.4187 23.1496 24.6595 22.0064 24.9776 21.5447L25.347 21.0766C25.737 20.6753 26.1036 20.2547 26.445 19.8166C26.4811 19.7688 26.511 19.7171 26.5341 19.6627C26.629 19.3972 27.8654 18.7627 28.3709 18.4085C28.7068 18.1493 29.084 17.9406 29.4889 17.7898C29.7126 17.7312 30.0965 17.5987 30.2421 17.5442C30.3975 17.4971 30.5469 17.4344 30.6879 17.3573C30.7058 17.3232 30.5509 17.2779 30.5509 17.2779L29.5792 17.1636C29.5792 17.1636 29.203 17.1042 29.1405 17.0016C28.8974 16.82 28.6386 16.6576 28.3667 16.516C28.0524 16.428 27.7162 16.4352 27.4066 16.5366C27.0798 16.6266 26.7588 16.7338 26.445 16.8576C26.4433 16.8589 26.4414 16.86 26.4394 16.8608C26.1638 17.0294 25.8793 17.1849 25.5869 17.3267C25.523 17.3494 25.4622 17.3791 25.4059 17.4152L25.2748 17.2605C25.2748 17.2605 25.4804 16.9254 25.5228 16.8475C25.5636 16.7699 25.9173 16.0188 25.9173 16.0188C26.0565 15.7088 26.1673 15.3883 26.2486 15.0608C26.3928 14.5008 25.776 13.8663 25.306 13.5983C24.837 13.3285 23.2559 13.461 22.9149 13.5057C22.5753 13.5504 21.1866 13.772 21.0688 13.8167C20.9485 13.8614 19.3078 14.3262 19.2197 14.3494C19.1694 14.3626 18.7955 14.4876 18.4446 14.6107C18.4446 14.6107 17.0627 15.2701 16.7308 15.5018C16.1784 15.9193 15.5806 16.2817 14.9473 16.5832L14.4082 16.7764L14.6157 16.9695C14.6157 16.9695 15.2792 17.0853 15.7354 17.1626C16.3168 17.2181 16.9035 17.2007 17.4799 17.1109C17.8263 17.0084 18.1522 16.8535 18.4446 16.6524C18.5578 16.5802 18.6794 16.5202 18.8071 16.4737C18.8248 16.4671 18.8699 16.4448 18.8937 16.4374C19.1877 16.3623 19.49 16.3192 19.7947 16.309C19.824 16.3109 19.8531 16.3151 19.8816 16.3216C19.9455 16.3298 20.3596 16.4868 20.431 16.7144C20.4849 17.0308 20.4359 17.355 20.2903 17.6451C20.0414 17.9473 19.7248 18.1951 19.3627 18.3715C19.1889 18.4376 18.7875 18.5814 18.4446 18.7139C17.8488 18.8776 17.2378 18.9889 16.6197 19.0464H16.0463L15.9031 19.5804C15.8635 19.8933 15.8877 20.2104 15.9747 20.5148C16.1303 20.8789 16.3481 21.217 16.6198 21.516C16.7804 21.6425 16.983 21.7132 17.1932 21.7162L17.8383 20.982L18.4447 20.4519L18.768 20.259C18.768 20.259 18.8866 20.1864 18.9208 20.1641C19.1981 20.0178 19.4949 19.9062 19.8034 19.8322C19.9139 19.8099 20.2521 19.6949 20.4048 19.6667C20.4461 19.6633 20.4877 19.6662 20.528 19.6752C20.528 19.6752 21.1306 19.8389 21.1306 20.2823C21.1268 20.5584 21.059 20.8305 20.9317 21.0798L20.8996 21.1435L20.8131 21.2345L20.1287 21.7001C20.1287 21.7001 20.0523 21.7415 20.0238 21.758C19.8154 21.855 19.5969 21.9318 19.3717 21.9873C18.736 22.1389 17.8508 22.9172 17.8508 22.9172C17.3114 23.3034 16.8139 24.1917 16.6065 24.3848C16.3992 24.5779 16.4406 24.7324 16.4406 24.7324C17.0971 24.5142 17.7662 24.3304 18.4447 24.1819L20.5792 23.7617C20.5792 23.7617 21.6142 23.5765 21.9101 23.3498C22.2042 23.154 22.5177 22.985 22.8465 22.8451L22.8845 24.7727L22.9056 24.9L23.3057 26.2599C23.3057 26.2599 24.2631 28.6622 24.2169 29.2662C24.169 29.8727 24.0188 32.2806 24.0188 32.2806C24.0188 32.2806 23.4487 34.9871 23.4395 35.2898C23.4333 35.5913 23.3259 37.0154 23.3259 37.0154L23.2978 37.709L23.297 38.8686C23.022 39.0012 22.7332 39.1072 22.4351 39.1848C21.663 39.4492 20.9233 39.7895 20.2284 40.1999C19.9633 40.4098 19.5292 40.5057 19.5604 40.6219C19.6136 40.7605 19.6775 40.8953 19.7514 41.0254C19.7514 41.0254 19.4822 41.3845 19.6828 41.5303C19.8588 41.6574 21.6664 42.4881 22.1061 42.685C22.1446 42.702 22.1853 42.7143 22.2272 42.7215L24.0679 43.1466L24.2845 43.1665C24.2845 43.1665 24.4481 43.1713 24.5305 43.1631C24.8849 43.1232 25.8162 43.0208 26.4451 42.9609C26.6496 42.9427 26.82 42.928 26.9301 42.9215C26.9915 42.918 27.0423 42.9033 27.0562 42.9063C27.1833 42.9397 29.6379 42.0725 30.0503 41.9554C30.435 41.8021 30.7971 41.6036 31.1278 41.3646L32.6264 41.7698L32.7741 41.8261C32.7741 41.8261 33.377 42.0873 33.8878 42.3523C34.0979 42.2638 34.2932 42.1473 34.4675 42.0066L34.3241 41.2724ZM26.4451 38.7315L25.054 38.6517L25.1747 36.291C25.1747 36.291 25.5409 34.2132 25.5409 34.0804C25.5409 33.9668 25.7203 33.0749 25.7723 32.8346C25.7775 32.8118 25.7883 32.7904 25.8037 32.7721L25.8595 32.724L26.0984 32.5834L26.3225 32.5005L26.3882 32.4924C26.3882 32.4924 26.4116 32.494 26.4451 32.4954C26.5397 32.5057 26.6323 32.5282 26.7203 32.5622C26.8429 32.6246 27.0135 33.2102 27.0135 33.2102L27.2697 34.8187L27.4089 36.7643L27.536 38.7974L26.4451 38.7315Z" fill="white"/>
<defs>
<linearGradient id="paint0_linear" x1="4.24398" y1="60.3037" x2="116.437" y2="3.55647" gradientUnits="userSpaceOnUse">
<stop offset="0.01455" stop-color="#2B2E8C"/>
<stop offset="0.99891" stop-color="#5C62AC"/>
</linearGradient>
</defs>
</svg>
